<?xml version="1.0" standalone="no"?>
<!DOCTYPE svg PUBLIC "-//W3C//DTD SVG 20010904//EN"
 "http://www.w3.org/TR/2001/REC-SVG-20010904/DTD/svg10.dtd">
<svg version="1.0" xmlns="http://www.w3.org/2000/svg"
 width="89.000000pt" height="65.000000pt" viewBox="0 0 89.000000 65.000000"
 preserveAspectRatio="xMidYMid meet">

<g transform="translate(0.000000,65.000000) scale(0.100000,-0.100000)"
fill="#000000" stroke="none">
<path d="M550 507 c-57 -29 -48 -103 18 -146 60 -40 82 -63 82 -87 0 -32 -22
-47 -54 -34 -37 14 -139 13 -154 -2 -21 -21 -13 -28 28 -28 56 0 90 -34 90
-90 l0 -40 43 0 c24 0 48 5 55 12 15 15 16 73 0 97 -9 14 -8 23 5 42 36 51 17
93 -63 142 -91 56 -78 117 25 117 120 0 135 -26 135 -228 0 -141 -1 -150 -20
-155 -41 -11 -20 -27 35 -27 42 0 55 3 55 15 0 8 -9 15 -20 15 -19 0 -20 7
-20 158 0 178 -10 211 -75 238 -42 17 -131 18 -165 1z"/>
<path d="M71 476 c-8 -9 -11 -72 -9 -202 l3 -189 165 0 165 0 3 189 c2 130 -1
193 -9 202 -17 20 -301 20 -318 0z m297 -193 l2 -173 -140 0 -140 0 0 175 0
176 138 -3 137 -3 3 -172z"/>
<path d="M120 410 c0 -5 23 -10 50 -10 28 0 50 5 50 10 0 6 -22 10 -50 10 -27
0 -50 -4 -50 -10z"/>
<path d="M152 326 c-32 -30 -37 -40 -37 -79 0 -112 129 -163 206 -81 19 20 24
36 24 76 0 44 -4 53 -37 84 -30 27 -46 34 -78 34 -32 0 -48 -7 -78 -34z m135
-20 c23 -20 26 -28 17 -43 -15 -25 -42 -28 -65 -7 -18 16 -20 16 -37 1 -47
-43 -78 -1 -33 44 37 37 79 38 118 5z m-41 -82 c20 -14 30 -15 49 -6 30 14 32
3 5 -31 -26 -33 -62 -41 -105 -23 -34 15 -49 46 -21 46 7 0 19 7 26 15 15 19
15 19 46 -1z"/>
<path d="M450 170 c-11 -11 -20 -26 -20 -33 0 -24 31 -57 55 -57 52 0 74 65
33 94 -30 21 -44 20 -68 -4z"/>
</g>
</svg>
